<?xml version="1.0" encoding="utf-8"?>
<!-- Generator: Adobe Illustrator 27.4.0, SVG Export Plug-In . SVG Version: 6.00 Build 0)  -->
<svg version="1.1" id="Layer_1" xmlns="http://www.w3.org/2000/svg" xmlns:xlink="http://www.w3.org/1999/xlink" x="0px" y="0px"
	 viewBox="0 0 66.3 55.9" style="enable-background:new 0 0 66.3 55.9;" xml:space="preserve">
<style type="text/css">
	.st0{fill:#8CC641;}
	.st1{fill:#1C75BC;}
</style>
<path class="st0" d="M66.3,17.9c0-9.8-8-17.8-17.8-17.8c-3.5,0-6.9,1.1-9.9,3c-0.5-0.1-0.9,0.1-1.2,0.4l-2.4,1.9
	c-0.7,0.6-0.8,1.7-0.3,2.3c0.3,0.3,0.7,0.5,1.1,0.6c0.1,0,0.1,0,0.1,0c0.4,0,0.7-0.1,1.1-0.4L39.5,6c0.4-0.3,0.7-0.8,0.7-1.3
	c2.5-1.6,5.4-2.4,8.3-2.4c8.6,0,15.5,7,15.5,15.5c0,9.3-5.8,17.1-12.4,23c-0.3-0.2-0.6-0.2-0.9,0C43.5,47.1,35.3,51,33,52
	c-2.4-1-10.7-4.8-17.9-11.1c-0.2-0.2-0.6-0.2-0.9-0.1c-6.5-5.8-12-13.5-12-23c0-8.6,7-15.5,15.5-15.5C21,2.3,24,3.3,26.5,5
	c0.1,0.3,0.3,0.7,0.6,0.9l2.4,1.9c0.3,0.3,0.7,0.4,1.1,0.4c0,0,0.1,0,0.1,0c0.5-0.1,0.9-0.3,1.1-0.6C32.4,7,32.3,6,31.6,5.4
	l-2.4-1.9c-0.4-0.4-1-0.5-1.5-0.3c-2.9-1.9-6.4-3-9.9-3.1C8,0,0,8,0,17.8c0,10.5,5.9,18.7,12.6,24.7c-0.2,0.3-0.2,0.7,0.1,0.9
	c8.5,7.4,18,11.4,19.5,12l0.9,0.5l0.5-0.2v0h0.1c0.4-0.2,10.4-4.4,19.4-12.1c0.3-0.3,0.3-0.6,0.1-0.9C60.1,36.5,66.2,28.1,66.3,17.9
	z"/>
<g>
	<path class="st1" d="M14.1,12.8h9.2c2.5,0,4.3,0.8,5.4,2.3c0.6,0.9,0.9,1.9,0.9,3.1c0,1.4-0.4,2.5-1.2,3.3c-0.4,0.5-1,0.9-1.7,1.3
		c1.1,0.4,1.9,0.9,2.5,1.4c1,0.9,1.4,2.2,1.4,3.9c0,1.4-0.4,2.6-1.3,3.8c-1.3,1.7-3.4,2.5-6.2,2.5h-9.1V12.8z M22.3,21.9
		c1.2,0,2.2-0.2,2.9-0.5c1.1-0.5,1.6-1.5,1.6-2.9c0-1.4-0.6-2.4-1.7-2.8c-0.6-0.3-1.6-0.4-2.9-0.4H17v6.7H22.3z M23.2,31.8
		c1.8,0,3.1-0.5,3.8-1.5c0.5-0.7,0.7-1.4,0.7-2.4c0-1.6-0.7-2.6-2.1-3.2c-0.7-0.3-1.7-0.5-2.9-0.5H17v7.6
		C17,31.8,23.2,31.8,23.2,31.8z"/>
	<path class="st1" d="M49.5,14.4c1.5,1.4,2.3,3.1,2.5,4.9h-2.8c-0.3-1.4-1-2.5-1.9-3.3c-1-0.8-2.3-1.2-4-1.2c-2.1,0-3.8,0.7-5.1,2.2
		c-1.3,1.5-2,3.8-2,6.8c0,2.5,0.6,4.6,1.8,6.1c1.2,1.6,2.9,2.3,5.3,2.3c2.1,0,3.8-0.8,4.9-2.5c0.6-0.9,1-2,1.3-3.4h2.8
		c-0.3,2.3-1.1,4.2-2.5,5.7c-1.7,1.8-4,2.8-6.9,2.8c-2.5,0-4.6-0.8-6.3-2.3c-2.2-2-3.3-5.1-3.3-9.3c0-3.2,0.8-5.8,2.5-7.8
		c1.8-2.2,4.3-3.3,7.5-3.3C45.9,12.2,48,13,49.5,14.4z"/>
</g>
</svg>
