<?xml version="1.0" encoding="utf-8"?>
<!-- Generator: Adobe Illustrator 27.4.0, SVG Export Plug-In . SVG Version: 6.00 Build 0)  -->
<svg version="1.1" id="Layer_1" xmlns="http://www.w3.org/2000/svg" xmlns:xlink="http://www.w3.org/1999/xlink" x="0px" y="0px"
	 viewBox="0 0 442.2 108.9" style="enable-background:new 0 0 442.2 108.9;" xml:space="preserve">
<style type="text/css">
	.st0{fill:#1C75BC;}
	.st1{fill:#8CC641;}
</style>
<g>
	<path class="st0" d="M26.7,22.9c1.6-0.8,2.9-1.7,3.7-2.7c1.7-1.9,2.5-4.2,2.5-7.1c0-2.5-0.7-4.6-2-6.5c-2.3-3.2-6.1-4.8-11.4-4.8H0
		v45.6h19.1c6,0,10.3-1.7,13.1-5.3c1.9-2.4,2.8-5.1,2.8-8c0-3.5-1.1-6.2-3.1-8.2C30.8,24.8,29,23.8,26.7,22.9z M6,6.9h11
		c2.7,0,4.7,0.3,6.1,0.9c2.4,1,3.6,3,3.6,6c0,2.9-1.1,5-3.4,6.1c-1.5,0.7-3.5,1.1-6.1,1.1H6V6.9z M27.4,38.7
		c-1.6,2.2-4.3,3.3-8.1,3.3c0,0-13.3,0-13.3-0.1v-16h12.3c2.6,0,4.6,0.4,6.2,1c2.9,1.2,4.4,3.5,4.4,6.8
		C28.9,35.6,28.4,37.3,27.4,38.7z"/>
	<rect x="42.5" y="1.8" class="st0" width="5.6" height="45.5"/>
	<path class="st0" d="M85,25.1c-0.3-2.2-1.1-4.1-2.2-5.8c-1.2-1.8-2.9-3.2-5.1-4.3s-4.5-1.6-6.8-1.7c-4.6,0-8.4,1.7-11.3,5
		c-2.9,3.3-4.3,7.7-4.3,13c0,5.4,1.4,9.6,4.3,12.6c2.9,3,6.4,4.5,10.5,4.5c1.7,0,3.3-0.2,4.6-0.5c2.5-0.5,4.6-1.6,6.3-3.3
		c1-1,1.9-2.2,2.7-3.7s1.3-2.9,1.4-4.1h-5.5c-0.4,1.5-1.1,2.8-2.1,3.9c-1.8,1.9-4.1,2.9-7,2.9c-3.1,0-5.4-1.1-6.9-3.1
		s-2.3-4.7-2.4-8.1h24.3C85.5,29.1,85.3,26.6,85,25.1z M79.8,28.2H61.4c0.1-2.9,1.1-5.3,2.8-7.1c1.7-1.9,3.8-2.8,6.4-2.8
		c3.5,0,6.1,1.3,7.6,4C79,23.8,79.6,25.7,79.8,28.2L79.8,28.2z"/>
	<path class="st0" d="M115.1,30.9c-1.4-0.9-4.1-1.8-8.1-2.8l-3.9-0.6c-1.6-0.4-2.8-0.9-3.6-1.4c-1.4-0.9-2.1-2.1-2.1-3.5
		c0-1.3,0.5-2.4,1.6-3.2c1.1-0.8,2.7-1.2,4.8-1.2c3.2,0,5.4,0.7,6.7,2.2c0.7,1,1.2,2.1,1.3,3.4h5.3c0.1-2.1-0.6-4.1-2-6
		c-2.2-2.9-5.8-4.4-10.8-4.4c-3.8,0-6.8,1-9.1,2.9c-2.3,1.9-3.4,4.5-3.4,7.6c0,2.7,1.2,4.8,3.6,6.3c1.4,0.8,3.5,1.6,6.3,2.3l4.4,1.1
		c2.4,0.6,4,1.2,4.8,1.6c1.3,0.7,1.9,1.8,1.9,3.2c0,1.9-0.8,3.3-2.4,4.2c-1.5,0.9-3.3,1.3-5.4,1.3c-3.5,0-5.9-0.9-7.3-2.7
		c-0.8-1-1.2-2.4-1.4-4.3l-5.4-0.1c0.1,3.3,1.2,6.1,3.3,8.3c2.1,2.3,5.6,3.4,10.5,3.4c4.6,0,7.9-1,10.2-3.2c2.3-2.2,3.4-4.8,3.4-7.7
		C118.3,34.6,117.3,32.3,115.1,30.9z"/>
	<path class="st0" d="M147.3,31.2c-1.4-0.9-4.1-1.8-8.1-2.8l-3.7-0.9c-1.6-0.4-2.8-0.9-3.6-1.4c-1.4-0.9-2.1-2.1-2.1-3.5
		c0-1.3,0.5-2.4,1.6-3.2c1.1-0.8,2.7-1.2,4.8-1.2c3.2,0,5.4,0.7,6.7,2.2c0.7,1,1.2,2.1,1.3,3.4h5.3c0.1-2.1-0.6-4.1-2-6
		c-2.2-2.9-5.8-4.4-10.8-4.4c-3.8,0-6.8,1-9.1,2.9c-2.3,1.9-3.4,4.5-3.4,7.6c0,2.7,1.2,4.8,3.6,6.3c1.4,0.8,3.5,1.6,6.3,2.3l4.4,1.1
		c2.4,0.6,4,1.2,4.8,1.6c1.3,0.7,1.9,1.8,1.9,3.2c0,1.9-0.8,3.3-2.4,4.2c-1.5,0.9-3.3,1.3-5.4,1.3c-3.5,0-5.9-0.9-7.3-2.7
		c-0.8-1-1.2-2.4-1.4-4.3l-5.6,0.2c0.2,3.3,1.2,6,3.3,8.3c2.1,2.3,5.6,3.4,10.5,3.4c4.6,0,7.9-1,10.2-3.2s3.4-4.8,3.4-7.7
		C150.5,34.9,149.5,32.6,147.3,31.2z"/>
	<path class="st0" d="M279.7,48.5c6.1,0,11-1.9,14.6-5.8c3-3.3,4.8-7.3,5.3-12.1h-6c-0.6,3-1.5,5.4-2.8,7.2
		c-2.4,3.5-5.9,5.2-10.4,5.2c-4.9,0-8.6-1.7-11.1-5s-3.7-7.7-3.7-13c0-6.5,1.3-11.3,4.1-14.5c2.8-3.1,6.4-4.7,10.9-4.7
		c3.7,0,6.6,0.9,8.6,2.6c2.1,1.8,3.4,4.1,4.1,7h6c-0.4-3.8-2.1-7.3-5.3-10.3s-7.7-4.5-13.5-4.5c-6.8,0-12.1,2.3-15.9,7
		c-3.5,4.3-5.3,9.8-5.3,16.5c0,8.8,2.4,15.4,7.1,19.6C270,46.9,274.4,48.5,279.7,48.5z"/>
	<path class="st0" d="M324.9,27.2l-8.7,1.1c-3.2,0.4-5.7,1.4-7.6,3.1s-2.9,4.1-2.9,7.2c0,2.8,1,5.1,2.9,7s4.4,2.8,7.5,2.8
		c2.5,0,4.9-0.5,7-1.6s3.8-2.4,4.9-3.9c0.2,1.4,0.5,2.4,1,3.1c0.9,1.3,2.3,2,4.2,2c0.8,0,1.4,0,1.9-0.1s1.1-0.3,2-0.5v-4.1
		c-0.4,0-0.7,0.1-1,0.1c-0.3,0.1-0.6,0.1-0.8,0.1c-0.8,0-1.2-0.1-1.5-0.5s-0.4-0.8-0.4-1.4V22.5c0-3.1-1.2-5.4-3.6-6.9
		s-5.6-2.2-9.5-2.2c-3.4,0-6.4,0.8-8.9,2.4c-2.6,1.6-3.9,4.4-4,8.5h5.2c0.2-1.7,0.6-3,1.3-3.9c1.2-1.5,3.3-2.3,6.2-2.3
		c2.5,0,4.4,0.4,5.8,1.3c1.3,0.8,2,2.2,2,4.1c0,0.9-0.2,1.6-0.4,2.1C327,26.5,326.2,27,324.9,27.2z M327.6,34.9
		c0,3.4-1.5,5.9-4.6,7.4c-1.8,1-3.7,1.4-5.7,1.4c-1.6,0-3-0.5-4.2-1.4s-1.7-2.2-1.8-3.8c0-2.2,0.9-3.7,2.6-4.7c1-0.6,2.5-1,4.5-1.3
		l3.4-0.4c1.1-0.1,2.2-0.3,3.2-0.6c1-0.3,1.9-0.7,2.6-1.1V34.9z"/>
	<path class="st0" d="M348.7,28.1c0-2.3,0.8-4.4,2.3-6.2s3.7-2.7,6.5-2.7c0.3,0,0.6,0,0.9,0s0.6,0,0.9,0.1v-5.9
		c-0.6,0-1.1-0.1-1.3-0.1s-0.4,0-0.5,0c-2.3,0-4.2,0.8-5.9,2.4c-1.7,1.6-2.8,3-3.2,4.1v-5.7h-5.3v33.1h5.6V28.1z"/>
	<rect x="364.8" y="14.3" class="st0" width="5.7" height="33"/>
	<rect x="364.8" y="1.8" class="st0" width="5.7" height="6.3"/>
	<path class="st0" d="M400,21.5c0.6,1.2,0.9,2.9,0.9,4.9v20.8h5.7V25.9c0-3.3-0.5-5.9-1.4-7.7c-1.6-3.3-4.8-4.9-9.5-4.9
		c-2.2,0-4.1,0.5-5.9,1.3c-1.8,0.9-3.4,2.3-5,4.2v-4.7h-5.3l0.1,33.2h5.6V29.9c0-2.2,0.1-3.8,0.4-5s0.9-2.3,1.8-3.4
		c1.1-1.3,2.5-2.3,4-2.7c0.8-0.3,1.9-0.4,3.2-0.4C397.2,18.4,399,19.4,400,21.5z"/>
	<path class="st0" d="M437.1,14.5v4.2c-1.1-1.4-2.2-2.5-3.2-3.2c-1.9-1.3-4.2-2-6.7-1.8c-3.8,0-7.1,1.6-9.8,4.7s-4.1,7.4-4.1,13
		c0,5.9,1.3,10.1,4,12.7c2.7,2.5,5.8,3.8,9.4,3.8c2.6,0,4.7-0.3,6.2-1.2s2.9-2.1,4-3.8c0,4.6-0.3,7.7-1.1,9.5
		c-1.3,3-4.1,4.5-8.4,4.5c-2.8,0-4.7-0.7-6-1.9c-0.8-0.8-1.3-1.9-1.6-3.4h-5.7c0.3,3.4,1.7,5.9,4.1,7.5s5.4,2.4,9,2.4
		c6.4,0,10.8-2.3,13.1-6.8c1.3-2.5,1.9-5.8,1.9-10V14.5H437.1z M435.9,37.6c-1.7,3.6-4.5,5.4-8.5,5.4c-2.5,0-4.6-1-6.1-2.9
		s-2.3-4.8-2.3-8.5c0-3.2,0.3-5.7,1.1-7.7c1.4-3.7,4.1-5.5,8-5.5c2.6,0,4.8,1,6.5,3s2.5,5.1,2.7,9C437.3,33.2,436.8,35.6,435.9,37.6
		z"/>
	<polygon class="st1" points="298.7,65.7 290.2,52.1 287.5,52.1 287.6,68.9 289.8,68.9 289.8,55.3 298.4,68.9 300.9,68.9 
		300.9,52.1 298.7,52.1 	"/>
	<polygon class="st1" points="318.4,54.2 318.4,52.1 306.2,52.1 306.2,68.9 318.6,68.9 318.6,66.9 308.4,66.9 308.4,61.2 
		317.7,61.2 317.7,59.3 308.4,59.3 308.4,54.2 	"/>
	<polygon class="st1" points="329.5,68.9 329.5,54.1 335.2,54.1 335.2,52.1 321.5,52.1 321.5,54.1 327.2,54.1 327.2,68.9 	"/>
	<polygon class="st1" points="344.1,68.9 348,55 352,68.9 354.4,68.9 358.8,52.1 356.3,52.1 353.1,65.8 349.3,52.1 346.8,52.1 
		343,65.8 339.8,52.1 337.3,52.1 341.7,68.9 	"/>
	<path class="st1" d="M391.7,67.7c-0.1-0.3-0.2-0.8-0.2-1.4l-0.1-2.3c-0.1-1-0.3-1.7-0.6-2.1c-0.4-0.5-0.8-0.8-1.5-1.1
		c0.8-0.4,1.4-0.9,1.8-1.6c0.4-0.7,0.6-1.5,0.6-2.5c0-2-0.8-3.3-2.4-4c-0.9-0.4-1.9-0.6-3.2-0.6h-7.8l0.2,17h2.3v-7.2h5.2
		c0.9,0,1.6,0.1,2,0.3c0.7,0.4,1.2,1.1,1.2,2.2l0.1,2.8c0,0.6,0.1,1.1,0.1,1.3c0.1,0.3,0.1,0.4,0.2,0.6h2.8v-0.4
		C392.1,68.6,391.8,68.2,391.7,67.7z M388.4,59.2c-0.6,0.4-1.4,0.6-2.5,0.6l-5.4,0.2v-5.8h5.6c0.8,0,1.4,0.1,1.9,0.3
		c0.9,0.4,1.3,1.2,1.3,2.4C389.3,58,389,58.8,388.4,59.2z"/>
	<polygon class="st1" points="409.9,52.1 406.8,52.1 398.6,60.3 398.6,52.1 396.4,52.1 396.3,69.1 398.5,69.1 398.5,63.2 
		401.2,60.6 407.1,69 410.1,69 402.9,58.9 	"/>
	<path class="st1" d="M367.7,51.7c-4.7,0-8.5,3.8-8.5,8.4c0,4.5,3.6,8.1,8,8.4c-1,23.5-21.5,25.5-22.3,25.6l-139.6-0.6
		c0.8-3.1,1-6.4,0.7-9.5h0.1c0.6-0.3,15.7-6.6,29.3-18.3c0.4-0.4,0.4-0.9,0.1-1.4C246,55,255.2,42.4,255.3,27
		c0-14.8-12.1-26.9-26.9-26.9c-5.3,0-10.5,1.6-14.9,4.5c-0.7-0.1-1.3,0.1-1.8,0.6l-3.6,2.9c-1.1,0.9-1.2,2.5-0.4,3.5
		c0.4,0.5,1,0.8,1.7,0.9c0.1,0,0.2,0,0.2,0c0.6,0,1.1-0.2,1.6-0.6l3.6-2.9c0.6-0.5,1-1.2,1-1.9c3.8-2.4,8.1-3.7,12.6-3.7
		c13,0,23.5,10.6,23.5,23.5c0,14.1-8.8,25.9-18.8,34.7c-0.4-0.3-0.9-0.3-1.3,0c-11,9.5-23.3,15.4-26.8,16.9
		c-3.6-1.5-16.1-7.3-27.1-16.8c-0.3-0.3-0.9-0.3-1.3-0.1c-9.8-8.7-18.2-20.4-18.1-34.8c0-13,10.6-23.5,23.5-23.5
		c4.8,0.1,9.4,1.6,13.2,4.2c0.1,0.5,0.4,1,0.9,1.4l3.6,2.9c0.5,0.4,1,0.6,1.6,0.6c0,0,0.1,0,0.2,0c0.7-0.1,1.3-0.4,1.7-0.9
		c0.8-1,0.7-2.6-0.4-3.5l-3.6-2.9c-0.6-0.6-1.5-0.7-2.2-0.5c-4.4-2.9-9.6-4.6-15-4.7c-14.8,0-26.9,12.1-26.9,26.9
		c0,15.8,8.9,28.2,19.1,37.4c-0.3,0.4-0.3,1,0.2,1.4c12.8,11.2,27.2,17.3,29.4,18.1c0.3,3.2,0,6.6-0.8,9.7l-14.1-0.1v0.1l0,0
		c-3.9,0-8.4,1.5-10.1,5.3c-1.5,3.4-0.2,7.4,3.1,9.1c3.6,1.8,8,1.1,11.6-0.4c4-1.7,7.4-4.7,9.6-8.5c0.6-1.1,1.2-2.3,1.6-3.5
		L345,96.1c0.2,0,23.3-2.2,24.3-27.8c3.9-0.7,6.9-4.2,6.9-8.3C376.2,55.5,372.4,51.7,367.7,51.7z M195.6,104
		c-2.9,1.9-6.4,3.1-9.9,2.8c-3.2-0.3-6.1-2.2-5.6-5.7c0.5-4.1,5.2-5.6,8.8-5.6c0.2,0,0.3,0,0.4-0.1l13,0.1
		C201,98.8,198.8,101.8,195.6,104z M367.7,64.7c-2.5,0-4.6-2.1-4.6-4.6s2-4.6,4.6-4.6s4.6,2.1,4.6,4.6
		C372.3,62.7,370.2,64.7,367.7,64.7z"/>
	<path class="st0" d="M367.7,57c-1.7,0-3.1,1.4-3.1,3.1c0,1.7,1.4,3.1,3.1,3.1s3.1-1.4,3.1-3.1S369.4,57.1,367.7,57z"/>
</g>
</svg>
